<?xml version="1.0" encoding="UTF-8" standalone="no"?>
<!-- Created with Inkscape (http://www.inkscape.org/) -->

<svg
   xmlns:dc="http://purl.org/dc/elements/1.1/"
   xmlns:cc="http://creativecommons.org/ns#"
   xmlns:rdf="http://www.w3.org/1999/02/22-rdf-syntax-ns#"
   xmlns:svg="http://www.w3.org/2000/svg"
   xmlns="http://www.w3.org/2000/svg"
   version="1.1"
   width="892.91339"
   height="206.5748"
   id="svg55649"
   xml:space="preserve"><metadata
     id="metadata55655"><rdf:RDF><cc:Work
         rdf:about=""><dc:format>image/svg+xml</dc:format><dc:type
           rdf:resource="http://purl.org/dc/dcmitype/StillImage" /><dc:title></dc:title></cc:Work></rdf:RDF></metadata><defs
     id="defs55653"><clipPath
       id="clipPath55665"><path
         d="m 75.701,33.858 166.595,0 0,67.039 -166.595,0 0,-67.039 z"
         id="path55667" /></clipPath></defs><g
     transform="matrix(1.25,0,0,-1.25,-23.949445,706.48275)"
     id="g55657"><g
       transform="matrix(4.9696065,0,0,4.9696065,-403.90455,140.53753)"
       id="g55661"><g
         clip-path="url(#clipPath55665)"
         id="g55663"><g
           transform="translate(99.2184,61.8601)"
           id="g55669"><path
             d="m 0,0 c -0.083,-0.589 -0.176,-1.181 -0.176,-1.811 0,-2.157 0.638,-3.931 1.891,-5.268 1.261,-1.346 2.999,-2.026 5.165,-2.026 1.875,0 3.514,0.334 4.87,0.991 1.341,0.648 2.714,1.589 4.079,2.796 1.129,0.968 2.273,2.294 3.4,3.944 1.117,1.637 2.149,3.501 3.07,5.538 0.916,2.035 1.687,4.219 2.284,6.495 0.598,2.266 0.903,4.373 0.903,6.527 0,0.345 0.052,0.657 0.151,0.925 0.048,0.124 0.155,0.341 0.531,0.341 2.507,0 8.596,0.598 12.363,1.843 0.5,0.167 0.796,0.335 0.913,0.598 0.035,0.08 0.053,0.165 0.053,0.247 0,0.101 -0.023,0.203 -0.073,0.298 -0.202,0.407 -0.614,0.604 -1.099,0.446 -0.953,-0.318 -2.647,-0.627 -4.98,-0.858 -2.667,-0.26 -5.709,-0.097 -6.825,0.118 -0.996,0.192 -1.698,0.5 -2.165,0.738 -0.605,0.307 -0.918,0.638 -0.966,0.705 -0.238,0.293 -0.5,0.442 -0.781,0.442 -0.387,0 -0.947,-0.151 -1.713,-0.573 -0.752,-0.414 -1.415,-0.4 -1.744,-0.519 -0.327,-0.117 -0.504,-0.323 -0.563,-0.575 -0.167,-0.698 0.543,-0.891 0.543,-0.891 1.093,-0.137 1.68,-0.67 1.847,-1.682 0.192,-1.156 0.291,-2.685 0.291,-4.545 0,-2.088 -0.238,-4.329 -0.703,-6.659 -0.47,-2.343 -1.168,-4.548 -2.065,-6.496 -0.886,-1.93 -2.038,-3.552 -3.423,-4.823 -1.351,-1.236 -2.947,-1.862 -4.744,-1.862 -1.185,0 -2.154,0.257 -2.877,0.763 -0.74,0.519 -1.342,1.199 -1.788,2.012 -0.451,0.829 -0.76,1.788 -0.911,2.85 C 4.613,1.057 4.544,2.104 4.535,3.141"
             id="path55671"
             style="fill:#404951;fill-opacity:1;fill-rule:nonzero;stroke:none" /></g><g
           transform="translate(100.3157,66.5711)"
           id="g55673"><path
             d="m 0,0 c 0.669,2.141 1.529,4.263 2.582,6.338 1.511,2.989 3.289,5.716 5.287,8.113 0.41,0.494 1.083,1.168 2.06,2.062 1.022,0.937 2.232,1.413 3.594,1.413 1.031,0 1.388,-0.511 1.504,-0.941 C 15.541,15.211 14.659,12.281 13.025,9.43 6.5,-1.984 -6.296,-8.585 -11.014,-8.336 c -1.054,0.055 -1.928,0.337 -2.594,1.005 -0.669,0.667 -1.007,1.658 -1.007,2.952 0,1.477 0.432,3.196 1.284,5.1 0.838,1.876 1.848,3.776 3.001,5.644 1.147,1.859 2.296,3.589 3.41,5.144 0,0 2.513,3.409 2.509,3.402 l 0.925,1.055 c 0.398,0.397 0.872,0.69 1.432,0.875 l 2.143,0.536 c 0,0 1.939,0.423 2.001,0.43 0.635,0 0.861,-0.385 0.861,-0.743 0,-0.45 -0.485,-0.683 -0.908,-0.839 C 1.781,16.131 1.293,15.841 0.467,15.016 -0.707,13.764 -1.873,12.198 -3.005,10.369 -4.144,8.521 -5.201,6.644 -6.145,4.796 -7.085,2.958 -7.837,1.193 -8.384,-0.451 -8.928,-2.07 -9.201,-3.353 -9.201,-4.258 c 0,-0.392 0.041,-0.909 0.307,-1.239 0.243,-0.304 0.664,-0.362 1.096,-0.283 7.022,1.257 20.321,11.888 19.105,20.13 -0.048,0.311 -0.227,0.423 -0.521,0.423 -0.168,0 -0.575,-0.112 -1.413,-0.855 C 8.691,13.309 7.974,12.379 7.244,11.15 6.502,9.9 5.772,8.299 5.071,6.388 4.736,5.476 4.444,4.465 4.183,3.379 2.853,2.125 1.458,1.003 0,0"
             id="path55675"
             style="fill:#d91920;fill-opacity:1;fill-rule:nonzero;stroke:none" /></g><g
           transform="translate(136.599,68.0801)"
           id="g55677"><path
             d="M 0,0 -1.122,0 -1.982,4.229 -2.797,0 l -1.132,0 -1.952,7.342 1.094,0 1.357,-5.096 0.95,5.096 0.969,0 1.001,-5.117 1.346,5.117 1.103,0 L 0,0 z"
             id="path55679"
             style="fill:#404951;fill-opacity:1;fill-rule:nonzero;stroke:none" /></g><g
           transform="translate(141.5493,73.5011)"
           id="g55681"><path
             d="m 0,0 -0.905,-2.807 1.805,0 L 0,0 z m 1.737,-5.421 -0.51,1.625 -2.461,0 -0.521,-1.625 -1.102,0 2.368,7.342 0.993,0 2.347,-7.342 -1.114,0 z"
             id="path55683"
             style="fill:#404951;fill-opacity:1;fill-rule:nonzero;stroke:none" /></g><g
           transform="translate(148.117,68.0801)"
           id="g55685"><path
             d="m 0,0 c -1.889,0 -3.004,1.481 -3.004,3.605 0,2.03 1.083,3.787 3.176,3.787 0.531,0 1.053,-0.101 1.808,-0.398 L 1.572,6.076 c -0.645,0.245 -1.01,0.316 -1.4,0.316 -1.201,0 -2.113,-0.991 -2.113,-2.787 0,-1.828 0.879,-2.604 1.941,-2.604 l 1.094,0 0,2.247 -1.32,0 0,1.019 2.38,0 L 2.154,0 0,0 z"
             id="path55687"
             style="fill:#404951;fill-opacity:1;fill-rule:nonzero;stroke:none" /></g><g
           transform="translate(154.7028,68.0801)"
           id="g55689"><path
             d="m 0,0 c -1.889,0 -3.001,1.481 -3.001,3.605 0,2.03 1.08,3.787 3.175,3.787 0.529,0 1.049,-0.101 1.807,-0.398 L 1.571,6.076 C 0.928,6.321 0.561,6.392 0.174,6.392 -1.032,6.392 -1.941,5.401 -1.941,3.605 -1.941,1.777 -1.064,1.001 0,1.001 l 1.092,0 0,2.247 -1.318,0 0,1.019 2.38,0 L 2.154,0 0,0 z"
             id="path55691"
             style="fill:#404951;fill-opacity:1;fill-rule:nonzero;stroke:none" /></g><g
           transform="translate(158.6942,68.0801)"
           id="g55693"><path
             d="m 0,0 0,7.352 3.278,0 0,-1.001 -2.216,0 0,-2.084 1.768,0 0,-1.019 -1.768,0 0,-2.247 2.216,0 L 3.278,0 0,0 z"
             id="path55695"
             style="fill:#404951;fill-opacity:1;fill-rule:nonzero;stroke:none" /></g><g
           transform="translate(167.9056,68.0801)"
           id="g55697"><path
             d="m 0,0 -3.034,5.105 0,-5.105 -1.062,0 0,7.261 0.901,0.152 2.979,-5.023 0,4.952 1.063,0 L 0.847,0 0,0 z"
             id="path55699"
             style="fill:#404951;fill-opacity:1;fill-rule:nonzero;stroke:none" /></g><g
           transform="translate(170.5385,68.0801)"
           id="g55701"><path
             d="m 0,0 0,7.352 3.278,0 0,-1.001 -2.216,0 0,-2.084 1.767,0 0,-1.019 -1.767,0 0,-2.247 2.216,0 L 3.278,0 0,0 z"
             id="path55703"
             style="fill:#404951;fill-opacity:1;fill-rule:nonzero;stroke:none" /></g><g
           transform="translate(177.3181,74.4422)"
           id="g55705"><path
             d="m 0,0 -0.604,0 0,-2.341 0.565,0 c 0.286,0 1.133,0.196 1.133,1.288 C 1.094,-0.226 0.634,0 0,0 m 1.502,-6.362 -1.891,3.022 -0.215,0 0,-3.022 -1.062,0 0,7.333 1.666,0 c 1.124,0 2.155,-0.522 2.155,-2.024 0,-1.071 -0.56,-1.826 -1.39,-2.133 0.645,-0.971 1.96,-3.176 1.96,-3.176 l -1.223,0 z"
             id="path55707"
             style="fill:#404951;fill-opacity:1;fill-rule:nonzero;stroke:none" /></g><g
           transform="translate(184.7502,68.0801)"
           id="g55709"><path
             d="m 0,0 0,7.352 3.344,0 0,-1.001 -2.258,0 0,-2.084 1.8,0 0,-1.019 -1.8,0 0,-2.247 2.258,0 L 3.344,0 0,0 z"
             id="path55711"
             style="fill:#404951;fill-opacity:1;fill-rule:nonzero;stroke:none" /></g><g
           transform="translate(191.625,74.4226)"
           id="g55713"><path
             d="m 0,0 c -0.282,0 -0.468,0.009 -0.678,0.009 l 0,-5.35 0.439,0 c 1.325,0 2.352,0.776 2.352,2.747 C 2.113,-0.636 1.293,0 0,0 m -0.239,-6.343 -1.522,0 0,7.342 1.761,0 c 2.083,0 3.196,-1.276 3.196,-3.593 0,-2.39 -1.384,-3.749 -3.435,-3.749"
             id="path55715"
             style="fill:#404951;fill-opacity:1;fill-rule:nonzero;stroke:none" /></g><g
           transform="translate(197.6765,68.0289)"
           id="g55717"><path
             d="M 0,0 C -0.749,0 -1.314,0.206 -1.864,0.479 L -1.458,1.39 C -0.959,1.175 -0.486,0.98 0,0.98 c 0.833,0 1.302,0.421 1.302,1.255 0,1.584 -2.918,1.195 -2.918,3.146 0,1.227 0.824,2.103 2.262,2.103 0.593,0 1.062,-0.183 1.55,-0.379 L 1.939,6.136 C 1.522,6.301 1.115,6.484 0.646,6.484 -0.114,6.484 -0.529,6.127 -0.529,5.381 -0.529,4.994 -0.085,4.79 0.25,4.627 1.344,4.084 2.385,3.645 2.385,2.235 2.385,0.849 1.437,0 0,0"
             id="path55719"
             style="fill:#404951;fill-opacity:1;fill-rule:nonzero;stroke:none" /></g><g
           transform="translate(203.9655,74.4226)"
           id="g55721"><path
             d="m 0,0 0,-6.343 -1.083,0 0,6.343 -1.571,0 0,0.999 4.206,0 L 1.552,0 0,0 z"
             id="path55723"
             style="fill:#404951;fill-opacity:1;fill-rule:nonzero;stroke:none" /></g><g
           transform="translate(208.7792,74.4422)"
           id="g55725"><path
             d="m 0,0 -0.615,0 0,-2.341 0.574,0 c 0.289,0 1.156,0.196 1.156,1.288 C 1.115,-0.226 0.644,0 0,0 m 1.528,-6.362 -1.924,3.022 -0.219,0 0,-3.022 -1.085,0 0,7.333 1.7,0 c 1.145,0 2.196,-0.522 2.196,-2.024 0,-1.071 -0.573,-1.826 -1.415,-2.133 0.657,-0.971 1.999,-3.176 1.999,-3.176 l -1.252,0 z"
             id="path55727"
             style="fill:#404951;fill-opacity:1;fill-rule:nonzero;stroke:none" /></g><g
           transform="translate(215.203,74.4723)"
           id="g55729"><path
             d="m 0,0 c -0.842,0 -1.831,-0.765 -1.831,-2.788 0,-1.868 0.686,-2.654 1.707,-2.654 0.854,0 1.843,0.765 1.843,2.777 C 1.719,-0.716 0.929,0 0,0 m -0.124,-6.443 c -2.031,0 -2.793,1.714 -2.793,3.655 0,2.245 1.169,3.787 2.917,3.787 1.896,0 2.804,-1.571 2.804,-3.664 0,-2.225 -1.167,-3.778 -2.928,-3.778"
             id="path55731"
             style="fill:#404951;fill-opacity:1;fill-rule:nonzero;stroke:none" /></g><g
           transform="translate(225.0679,68.0801)"
           id="g55733"><path
             d="M 0,0 -0.751,4.664 C -1.292,2.777 -2.024,0 -2.024,0 l -0.955,0 c 0,0 -0.709,2.687 -1.25,4.606 L -4.927,0 l -1.094,0 1.136,7.342 0.958,0 c 0,0 0.853,-3.113 1.427,-5.087 0.561,1.962 1.435,5.087 1.435,5.087 l 0.95,0 L 1.092,0 0,0 z"
             id="path55735"
             style="fill:#404951;fill-opacity:1;fill-rule:nonzero;stroke:none" /></g><g
           transform="translate(137.3645,59.2448)"
           id="g55737"><path
             d="m 0,0 c -0.014,-0.096 -0.1,-0.177 -0.201,-0.177 l -0.294,0 c -0.096,0 -0.189,0.071 -0.217,0.177 l -0.513,2.638 c -0.013,0.095 -0.052,0.095 -0.068,0 L -1.767,0 c -0.017,-0.111 -0.105,-0.177 -0.218,-0.177 l -0.284,0 c -0.107,0 -0.183,0.071 -0.206,0.177 l -1.067,4.135 c -0.02,0.08 0.03,0.176 0.124,0.176 l 0.321,0 c 0.11,0 0.199,-0.076 0.226,-0.183 l 0.692,-2.72 c 0.018,-0.074 0.048,-0.074 0.062,0.007 l 0.515,2.713 c 0.018,0.087 0.117,0.183 0.206,0.183 l 0.259,0 c 0.095,0 0.194,-0.096 0.213,-0.183 l 0.544,-2.72 c 0.019,-0.076 0.064,-0.076 0.069,0 l 0.582,2.72 C 0.3,4.235 0.401,4.311 0.508,4.311 l 0.277,0 c 0.119,0 0.16,-0.082 0.133,-0.188 L 0,0 z"
             id="path55739"
             style="fill:#d91920;fill-opacity:1;fill-rule:nonzero;stroke:none" /></g><g
           transform="translate(142.4564,62.1087)"
           id="g55741"><path
             d="M 0,0 C 0,0.641 -0.137,0.86 -0.527,0.86 -0.923,0.86 -1.055,0.641 -1.055,0 l 0,-1.608 c 0,-0.634 0.125,-0.853 0.528,-0.853 0.39,0 0.527,0.219 0.527,0.853 L 0,0 z M 0.447,-2.676 C 0.228,-2.965 -0.108,-3.11 -0.527,-3.11 c -0.421,0 -0.78,0.158 -0.968,0.434 -0.186,0.265 -0.257,0.553 -0.257,1.06 l 0,1.631 c 0,0.509 0.074,0.822 0.257,1.067 0.206,0.283 0.536,0.428 0.968,0.428 0.419,0 0.779,-0.152 0.974,-0.428 C 0.629,0.819 0.705,0.524 0.705,0.015 l 0,-1.631 c 0,-0.507 -0.076,-0.816 -0.258,-1.06"
             id="path55743"
             style="fill:#d91920;fill-opacity:1;fill-rule:nonzero;stroke:none" /></g><g
           transform="translate(147.3781,62.9152)"
           id="g55745"><path
             d="m 0,0 -0.078,0 c -0.099,0 -0.179,-0.082 -0.179,-0.183 l 0,-1.005 c 0,-0.101 0.08,-0.183 0.179,-0.183 l 0.078,0 c 0.526,0 0.709,0.183 0.709,0.691 C 0.709,-0.176 0.526,0 0,0 m 1.307,-3.848 -0.371,0 c -0.133,0 -0.201,0.066 -0.238,0.183 l -0.477,1.478 c -0.047,0.126 -0.096,0.173 -0.233,0.173 l -0.066,0 c -0.116,0 -0.179,-0.053 -0.179,-0.173 l 0,-1.483 c 0,-0.101 -0.076,-0.178 -0.178,-0.178 l -0.344,0 c -0.108,0 -0.17,0.077 -0.17,0.178 l 0,4.128 c 0,0.094 0.083,0.183 0.176,0.183 l 0.917,0 c 0.837,0 1.282,-0.448 1.282,-1.282 0,-0.502 -0.151,-0.867 -0.458,-1.087 C 0.861,-1.804 0.837,-1.846 0.865,-1.957 L 1.426,-3.665 C 1.458,-3.759 1.401,-3.848 1.307,-3.848"
             id="path55747"
             style="fill:#d91920;fill-opacity:1;fill-rule:nonzero;stroke:none" /></g><g
           transform="translate(154.1325,59.0675)"
           id="g55749"><path
             d="m 0,0 -1.722,0 c -0.094,0 -0.176,0.076 -0.176,0.177 l 0,4.129 c 0,0.101 0.07,0.182 0.176,0.182 l 0.332,0 c 0.109,0 0.19,-0.069 0.19,-0.182 l 0,-3.482 c 0,-0.107 0.062,-0.181 0.171,-0.181 l 1.029,0 c 0.121,0 0.176,-0.062 0.176,-0.183 l 0,-0.283 C 0.176,0.076 0.1,0 0,0"
             id="path55751"
             style="fill:#d91920;fill-opacity:1;fill-rule:nonzero;stroke:none" /></g><g
           transform="translate(159.2712,61.958)"
           id="g55753"><path
             d="m 0,0 c 0,0.712 -0.175,0.957 -0.661,0.957 l -0.176,0 c -0.1,0 -0.168,-0.069 -0.168,-0.171 l 0,-2.89 c 0,-0.08 0.077,-0.144 0.151,-0.144 l 0.193,0 C -0.175,-2.248 0,-1.996 0,-1.3 L 0,0 z m -0.602,-2.89 -0.93,0 c -0.101,0 -0.164,0.081 -0.164,0.182 l 0,4.123 c 0,0.082 0.077,0.183 0.164,0.183 l 0.93,0 c 0.879,0 1.3,-0.453 1.3,-1.403 l 0,-1.677 c 0,-0.961 -0.421,-1.408 -1.3,-1.408"
             id="path55755"
             style="fill:#d91920;fill-opacity:1;fill-rule:nonzero;stroke:none" /></g><g
           transform="translate(166.3393,59.2448)"
           id="g55757"><path
             d="m 0,0 c -0.012,-0.096 -0.097,-0.177 -0.198,-0.177 l -0.296,0 c -0.095,0 -0.189,0.071 -0.216,0.177 l -0.513,2.638 c -0.012,0.095 -0.051,0.095 -0.069,0 L -1.764,0 c -0.018,-0.111 -0.107,-0.177 -0.221,-0.177 l -0.282,0 c -0.107,0 -0.181,0.071 -0.207,0.177 l -0.785,4.135 c -0.015,0.08 0.044,0.176 0.138,0.176 l 0.319,0 c 0.113,0 0.197,-0.076 0.215,-0.183 l 0.451,-2.537 c 0.02,-0.078 0.052,-0.078 0.064,0.005 l 0.473,2.532 c 0.016,0.087 0.119,0.183 0.207,0.183 l 0.256,0 c 0.094,0 0.195,-0.096 0.213,-0.183 l 0.51,-2.532 c 0.018,-0.076 0.064,-0.076 0.069,0 L 0.052,4.128 C 0.071,4.235 0.166,4.311 0.27,4.311 l 0.277,0 C 0.668,4.311 0.718,4.229 0.7,4.123 L 0,0 z"
             id="path55759"
             style="fill:#d91920;fill-opacity:1;fill-rule:nonzero;stroke:none" /></g><g
           transform="translate(170.6701,59.0675)"
           id="g55761"><path
             d="m 0,0 -0.337,0 c -0.089,0 -0.178,0.076 -0.178,0.17 l 0,4.143 c 0,0.099 0.077,0.175 0.178,0.175 l 0.344,0 c 0.087,0 0.176,-0.081 0.176,-0.17 l 0,-4.148 C 0.183,0.081 0.089,0 0,0"
             id="path55763"
             style="fill:#d91920;fill-opacity:1;fill-rule:nonzero;stroke:none" /></g><g
           transform="translate(175.9435,61.958)"
           id="g55765"><path
             d="m 0,0 c 0,0.712 -0.177,0.957 -0.662,0.957 l -0.176,0 c -0.099,0 -0.169,-0.069 -0.169,-0.171 l 0,-2.89 c 0,-0.08 0.075,-0.144 0.151,-0.144 l 0.194,0 C -0.177,-2.248 0,-1.996 0,-1.3 L 0,0 z m -0.606,-2.89 -0.928,0 c -0.101,0 -0.163,0.081 -0.163,0.182 l 0,4.123 c 0,0.082 0.074,0.183 0.163,0.183 l 0.928,0 c 0.881,0 1.304,-0.453 1.304,-1.403 l 0,-1.677 c 0,-0.961 -0.423,-1.408 -1.304,-1.408"
             id="path55767"
             style="fill:#d91920;fill-opacity:1;fill-rule:nonzero;stroke:none" /></g><g
           transform="translate(182.0675,59.2448)"
           id="g55769"><path
             d="m 0,0 c 0,-0.101 -0.082,-0.177 -0.181,-0.177 l -1.671,0 c -0.096,0 -0.183,0.076 -0.183,0.177 l 0,4.128 c 0,0.082 0.1,0.183 0.183,0.183 l 1.671,0 c 0.119,0 0.178,-0.064 0.178,-0.183 l 0,-0.284 c 0,-0.106 -0.059,-0.174 -0.171,-0.174 l -0.987,0 c -0.127,0 -0.185,-0.087 -0.185,-0.207 l 0,-0.792 c 0,-0.109 0.084,-0.176 0.185,-0.176 l 0.834,0 c 0.114,0 0.178,-0.077 0.178,-0.183 l 0,-0.282 c 0,-0.095 -0.083,-0.176 -0.178,-0.176 l -0.841,0 c -0.101,0 -0.169,-0.089 -0.169,-0.188 l 0,-1.02 c 0,-0.106 0.055,-0.18 0.169,-0.18 l 0.987,0 C -0.088,0.466 0,0.371 0,0.277 L 0,0 z"
             id="path55771"
             style="fill:#d91920;fill-opacity:1;fill-rule:nonzero;stroke:none" /></g><g
           transform="translate(227.5038,75.6276)"
           id="g55773"><path
             d="m 0,0 -0.062,0 c -0.052,0.007 -0.066,-0.011 -0.066,-0.011 0,0 -0.015,-0.014 -0.015,-0.062 l 0,-0.04 c -0.003,-0.04 0.019,-0.062 0.019,-0.062 0,0 0.022,-0.021 0.062,-0.014 l 0.054,0 c 0.109,0 0.153,0.025 0.153,0.094 C 0.145,-0.033 0.101,0 0,0 M 0.29,-0.207 C 0.287,-0.214 0.279,-0.222 0.272,-0.233 0.254,-0.244 0.254,-0.258 0.254,-0.258 c 0,0 0,-0.015 0.018,-0.037 0.007,-0.003 0.015,-0.014 0.022,-0.025 0.018,-0.036 0.029,-0.098 0.036,-0.196 l 0,-0.033 c 0.004,-0.033 0.007,-0.047 -0.011,-0.066 0,0 -0.022,-0.014 -0.065,-0.014 l -0.029,0 c -0.047,0 -0.066,0.014 -0.066,0.014 -0.022,0.022 -0.01,0.022 -0.014,0.07 -0.004,0.007 -0.004,0.018 -0.004,0.025 -0.01,0.16 -0.032,0.189 -0.156,0.189 l -0.051,0 c -0.048,0 -0.058,-0.015 -0.058,-0.015 0,0 -0.019,-0.01 -0.019,-0.069 l 0,-0.134 c 0,-0.047 -0.014,-0.066 -0.014,-0.066 0,0 -0.018,-0.014 -0.065,-0.014 l -0.04,0 c -0.044,0 -0.062,0.014 -0.062,0.014 0,0 -0.012,0.015 -0.012,0.066 l 0,0.622 c -0.006,0.043 0.012,0.062 0.012,0.062 0,0 0.022,0.014 0.065,0.014 l 0.298,0 c 0.19,0 0.295,-0.08 0.295,-0.229 0,-0.051 -0.011,-0.084 -0.044,-0.127 m -0.305,0.578 c -0.35,0 -0.633,-0.276 -0.633,-0.626 0,-0.341 0.283,-0.621 0.633,-0.621 0.345,0 0.628,0.28 0.628,0.621 0,0.35 -0.283,0.626 -0.628,0.626 m 0,-1.429 c -0.451,0 -0.814,0.36 -0.814,0.803 0,0.448 0.363,0.808 0.814,0.808 0.447,0 0.811,-0.36 0.811,-0.808 0,-0.443 -0.364,-0.803 -0.811,-0.803"
             id="path55775"
             style="fill:#404951;fill-opacity:1;fill-rule:nonzero;stroke:none" /></g></g></g><text
       transform="matrix(1,0,0,-1,83.8004,733.4812)"
       id="text55777"><tspan
         x="0 12.432 28 43.568001 52.891998 60.675999 77.783997 91.783997 104.216 115.108 122.892 132.216 147.784 155.56799 174.244 189.812 196.028 205.35201 211.56799 224 238 247.32401 253.53999 269.108 284.67599 292.45999 306.45999"
         y="0"
         id="tspan55779"
         style="font-size:28px;font-variant:normal;font-weight:300;font-stretch:normal;writing-mode:lr-tb;fill:#ffffff;fill-opacity:1;fill-rule:nonzero;stroke:none;font-family:Frutiger 45 Light;-inkscape-font-specification:Frutiger-Light">Four Keys to Cultivating a </tspan></text>
<text
       transform="matrix(1,0,0,-1,83.8004,693.4812)"
       id="text55781"><tspan
         x="0 27.104 33.32 48.888 64.456001 70.671997 86.239998 101.808 109.592 128.26801 143.836 151.62 160.944 176.51199 185.836 193.62 207.62 221.62 227.836 241.836 252.728 260.51199 274.51199 283.332 298.89999 314.46799 323.79199 337.79199 361.116 384.44"
         y="0"
         id="tspan55783"
         style="font-size:28px;font-variant:normal;font-weight:300;font-stretch:normal;writing-mode:lr-tb;fill:#ffffff;fill-opacity:1;fill-rule:nonzero;stroke:none;font-family:Frutiger 45 Light;-inkscape-font-specification:Frutiger-Light">Winning AR for Sales Programme</tspan></text>
</g></svg>